<?xml version="1.0" encoding="UTF-8"?>
<svg width="1918px" height="246px" viewBox="0 0 1918 246" version="1.1" xmlns="http://www.w3.org/2000/svg" xmlns:xlink="http://www.w3.org/1999/xlink">
    <title>record-progress-bar</title>
    <defs>
        <linearGradient x1="50%" y1="0%" x2="50%" y2="100%" id="linearGradient-1">
            <stop stop-color="#6DD400" offset="0%"></stop>
            <stop stop-color="#F7B500" offset="100%"></stop>
        </linearGradient>
        <linearGradient x1="50%" y1="0%" x2="50%" y2="100%" id="linearGradient-2">
            <stop stop-color="#6DD400" offset="0%"></stop>
            <stop stop-color="#F7B500" offset="100%"></stop>
        </linearGradient>
        <linearGradient x1="50%" y1="0%" x2="50%" y2="100%" id="linearGradient-3">
            <stop stop-color="#6DD400" offset="0%"></stop>
            <stop stop-color="#F7B500" offset="100%"></stop>
        </linearGradient>
        <linearGradient x1="50%" y1="0%" x2="50%" y2="100%" id="linearGradient-4">
            <stop stop-color="#6DD400" offset="0%"></stop>
            <stop stop-color="#F7B500" offset="100%"></stop>
        </linearGradient>
    </defs>
    <g id="Page-1" stroke="none" stroke-width="1" fill="none" fill-rule="evenodd">
        <g id="lines-copy-3" transform="translate(1917.000000, -96.000000)" stroke="#7AE9C5" stroke-linecap="round" stroke-linejoin="round">
            <g id="Green-line">
                <path d="M0,197.629973 C150.221912,70.5566578 321.34577,7.02000034 513.371575,7.02000034 C744.388783,7.02000034 865.49046,64.3660164 1059.10788,180.283629 C1171.25343,247.424512 1359.78615,331.14767 1605.32108,331.14767 C1747.29212,331.14767 1907.51843,286.641771 2086,197.629973" id="Path-3-Copy"></path>
            </g>
        </g>
        <g id="record-progress-bar" opacity="0.520854405" transform="translate(0.928168, 1.465624)">
            <path d="M1915.86904,243.709459 C1829.27211,135.113915 1706.98716,19.9449533 1568.24561,28.7020574 C1415.92589,38.3162398 1375.06558,189.027865 1219.23847,193.797692 C1036.19582,199.402238 997.94755,-5.66305505 819.352028,0.135265806 C643.464742,5.83669955 587.006181,207.794153 411.599865,184.831908 C324.381378,173.414135 298.379362,133.004757 208.674626,123.688689 C161.132522,118.762352 92.3685106,137.498828 0.621499101,243.709459 L1915.86904,243.709459 Z" id="Stroke-3" fill-opacity="0.2" fill="url(#linearGradient-1)"></path>
            <path d="M1915.86904,241.871833 C1759.96099,74.9765853 1634.61612,41.5855837 1546.31005,44.4914226 C1384.74049,49.8175488 1329.88064,177.241197 1140.66829,173.394135 C994.395261,170.421066 981.847329,93.3453713 843.558669,104.288955 C681.287027,117.122454 654.555451,226.722627 524.408008,215.517593 C395.956029,204.461959 367.065911,92.9718701 251.356057,88.4898565 C147.290386,84.4635142 59.0366013,170.316486 0.621499101,243.709459 L1915.86904,241.871833 Z" id="Stroke-7" fill-opacity="0.2" fill="url(#linearGradient-2)"></path>
            <path d="M1915.86904,241.858087 C1601.12509,56.3747431 1370.32531,47.5167582 1214.9625,76.5215788 C999.914857,116.672258 951.104897,225.301106 725.167442,219.513689 C540.354337,214.787423 447.484707,138.888716 241.735977,167.569923 C135.048683,182.441103 51.7543197,217.940776 0.621499101,243.709459 L1915.86904,241.858087 Z" id="Stroke-11" fill-opacity="0.2" fill="url(#linearGradient-3)"></path>
            <path d="M1915.86904,236.324765 C1829.27211,131.023083 1706.98716,19.3473643 1568.24561,27.8388527 C1415.92589,37.1614228 1375.06558,183.301744 1219.23847,187.926895 C1036.19582,193.361448 997.94755,-5.48391563 819.352028,0.131306873 C643.464742,5.66703459 587.006181,201.498823 411.599865,179.233056 C324.381378,168.161601 298.379362,128.970672 208.674626,119.944401 C161.132522,115.16026 92.3685106,133.335658 0.621499101,236.324765" id="Stroke-1" stroke="url(#linearGradient-4)" opacity="0.2"></path>
            <path d="M0.621499101,243.709459 C59.0291323,170.314027 147.290386,84.4581796 251.356057,88.4846567 C367.065911,92.9668205 395.956029,204.460645 524.408008,215.524119 C654.555451,226.729528 681.287027,117.118213 843.558669,104.284284 C981.847329,93.3403342 994.395261,170.41114 1140.66829,173.391779 C1329.88064,177.23897 1384.74049,49.8110535 1546.30258,44.4922192 C1634.61612,41.5788127 1759.96099,74.9784032 1915.86904,241.871772" id="Stroke-5" stroke="url(#linearGradient-2)" opacity="0.2"></path>
            <path d="M0.621499101,243.709459 C51.7543197,217.940776 135.048683,182.441103 241.735977,167.569923 C447.484707,138.888716 540.354337,214.787423 725.159973,219.513689 C951.097428,225.301106 999.914857,116.672258 1214.95503,76.5215788 C1370.32531,47.5167582 1601.12509,56.3747431 1915.86904,241.858087" id="Stroke-9" stroke="url(#linearGradient-3)" opacity="0.2"></path>
        </g>
    </g>
</svg>